<svg version="1.1" xmlns="http://www.w3.org/2000/svg" xml:space="preserve" viewBox="0 0 499.938 499.938">
  <path fill="#0017C8" d="M250.219 54.993c-129.909 0-235.221 106.319-235.221 237.47 0 71.114 30.684 117.495 30.684 117.495l408.981.021s30.774-50.689 30.774-117.517c.002-131.15-105.31-237.469-235.218-237.469zm187.19 326.052l-373.63-.162s-19.91-37.706-19.91-89.164c0-114.953 92.739-208.14 207.141-208.14 114.4 0 207.141 93.188 207.141 208.14 0 52.045-20.742 89.326-20.742 89.326z"/>
  <polygon fill="#EB1E00" points="403.349,341 316.701,118.052 313.742,118.05 251,241 251,241 186,117 186,117 97,341 74,341 74,359 200,359 200,341 175,341 200,271 251,359 251,359 300,271 325,341 300,341 300,359 425,359 425,341"/>
</svg>
