<?xml version="1.0" encoding="UTF-8" standalone="no"?>
<svg
   xmlns:dc="http://purl.org/dc/elements/1.1/"
   xmlns:cc="http://creativecommons.org/ns#"
   xmlns:rdf="http://www.w3.org/1999/02/22-rdf-syntax-ns#"
   xmlns:svg="http://www.w3.org/2000/svg"
   xmlns="http://www.w3.org/2000/svg"
   version="1.1"
   id="svg3519"
   viewBox="0 0 363.54325 49.098749"
   height="13.856758mm"
   width="102.59998mm">
  <defs
     id="defs3521">
    <clipPath
       id="clipPath104"
       clipPathUnits="userSpaceOnUse">
      <path
         id="path106"
         d="m 0,0 651.969,0 0,850.394 L 0,850.394 0,0 Z" />
    </clipPath>
    <clipPath
       id="clipPath80"
       clipPathUnits="userSpaceOnUse">
      <path
         id="path82"
         d="m 0,0 651.969,0 0,850.394 L 0,850.394 0,0 Z" />
    </clipPath>
    <clipPath
       id="clipPath60"
       clipPathUnits="userSpaceOnUse">
      <path
         id="path62"
         d="m 0,0 651.969,0 0,850.394 L 0,850.394 0,0 Z" />
    </clipPath>
    <clipPath
       id="clipPath40"
       clipPathUnits="userSpaceOnUse">
      <path
         id="path42"
         d="m 0,0 651.969,0 0,850.394 L 0,850.394 0,0 Z" />
    </clipPath>
    <clipPath
       id="clipPath104-1"
       clipPathUnits="userSpaceOnUse">
      <path
         id="path106-8"
         d="m 0,0 651.969,0 0,850.394 L 0,850.394 0,0 Z" />
    </clipPath>
    <clipPath
       id="clipPath80-4"
       clipPathUnits="userSpaceOnUse">
      <path
         id="path82-8"
         d="m 0,0 651.969,0 0,850.394 L 0,850.394 0,0 Z" />
    </clipPath>
    <clipPath
       id="clipPath60-4"
       clipPathUnits="userSpaceOnUse">
      <path
         id="path62-6"
         d="m 0,0 651.969,0 0,850.394 L 0,850.394 0,0 Z" />
    </clipPath>
    <clipPath
       id="clipPath40-7"
       clipPathUnits="userSpaceOnUse">
      <path
         id="path42-9"
         d="m 0,0 651.969,0 0,850.394 L 0,850.394 0,0 Z" />
    </clipPath>
  </defs>
  <metadata
     id="metadata3524">
    <rdf:RDF>
      <cc:Work
         rdf:about="">
        <dc:format>image/svg+xml</dc:format>
        <dc:type
           rdf:resource="http://purl.org/dc/dcmitype/StillImage" />
        <dc:title></dc:title>
      </cc:Work>
    </rdf:RDF>
  </metadata>
  <g
     transform="translate(-147.53811,-235.85323)"
     id="layer1">
    <g
       id="g36"
       transform="matrix(1.25,0,0,-1.25,-429.94414,525.71438)">
      <g
         transform="translate(488.59348,222.3709)"
         id="g26">
        <path
           id="path28"
           style="fill:#ff8300;fill-opacity:1;fill-rule:nonzero;stroke:none"
           d="m 0,0 -8.305,0 0,-20.214 4.25,0 0,16.136 L 0,-4.063 0,0 Z" />
      </g>
      <g
         transform="translate(492.85298,222.3709)"
         id="g30">
        <path
           id="path32"
           style="fill:#8b8d8d;fill-opacity:1;fill-rule:nonzero;stroke:none"
           d="m 0,0 8.306,0 0,-20.214 -4.25,0 0,16.136 L 0,-4.078 0,0 Z" />
      </g>
      <path
         id="path34"
         style="fill:#8b8d8d;fill-opacity:1;fill-rule:nonzero;stroke:none"
         d="m 492.83048,202.15681 -4.249,0 0,16.147 4.249,0 0,-16.147 z" />
      <g
         style="fill:#000000"
         clip-path="url(#clipPath40-7)"
         id="g38"
         transform="translate(281.7335,128.42482)">
        <g
           style="fill:#000000"
           transform="translate(211.1453,73.7321)"
           id="g44">
          <path
             id="path46"
             style="fill:#000000;fill-opacity:1;fill-rule:nonzero;stroke:none"
             d="m 0,0 c -2.677,-2.546 -6.36,-4.121 -10.427,-4.121 -8.18,0 -14.811,6.364 -14.811,14.213 0,7.849 6.631,14.213 14.811,14.213 4.063,0 7.743,-1.57 10.419,-4.112 l 4,3.836 c -3.701,3.524 -8.794,5.703 -14.419,5.703 -11.302,0 -20.466,-8.792 -20.466,-19.64 0,-10.846 9.164,-19.639 20.466,-19.639 5.619,0 10.708,2.175 14.407,5.692 L 0,0 Z" />
        </g>
        <g
           style="fill:#000000"
           transform="translate(242.4484,89.2162)"
           id="g48">
          <path
             id="path50"
             style="fill:#000000;fill-opacity:1;fill-rule:nonzero;stroke:none"
             d="m 0,0 -3.783,-1.391 c -0.539,1.649 -1.526,2.474 -2.959,2.474 -0.671,0 -1.203,-0.183 -1.594,-0.549 -0.392,-0.366 -0.588,-0.793 -0.588,-1.281 0,-0.565 0.232,-1.017 0.694,-1.354 0.463,-0.336 1.432,-0.778 2.906,-1.324 1.343,-0.478 2.398,-0.952 3.166,-1.419 0.767,-0.469 1.387,-1.106 1.86,-1.911 0.473,-0.805 0.71,-1.74 0.71,-2.803 0,-1.864 -0.669,-3.393 -2.006,-4.589 -1.338,-1.195 -3.13,-1.793 -5.377,-1.793 -3.773,0 -6.183,1.83 -7.23,5.489 l 3.996,1.098 c 0.488,-2.01 1.602,-3.015 3.341,-3.015 0.793,0 1.436,0.197 1.93,0.592 0.493,0.395 0.739,0.915 0.739,1.559 0,0.488 -0.173,0.925 -0.518,1.31 -0.346,0.385 -1.14,0.793 -2.38,1.222 -1.597,0.547 -2.786,1.042 -3.569,1.487 -0.784,0.443 -1.429,1.078 -1.938,1.902 -0.508,0.825 -0.762,1.764 -0.762,2.818 0,1.795 0.602,3.266 1.807,4.413 1.205,1.146 2.8,1.72 4.782,1.72 C -3.153,4.655 -0.895,3.103 0,0" />
        </g>
      </g>
      <g
         style="fill:#000000"
         transform="translate(525.76828,221.98821)"
         id="g52">
        <path
           id="path54"
           style="fill:#000000;fill-opacity:1;fill-rule:nonzero;stroke:none"
           d="m 0,0 12.981,0 0,-3.747 -4.256,0 0,-16.233 -4.576,0 0,16.233 L 0,-3.747 0,0 Z" />
      </g>
      <g
         style="fill:#000000"
         id="g56"
         transform="translate(281.7335,128.42482)">
        <g
           style="fill:#000000"
           clip-path="url(#clipPath60-4)"
           id="g58">
          <g
             style="fill:#000000"
             transform="translate(258.6023,93.5634)"
             id="g64">
            <path
               id="path66"
               style="fill:#000000;fill-opacity:1;fill-rule:nonzero;stroke:none"
               d="m 0,0 6.544,0 c 1.271,0 2.244,-0.056 2.921,-0.168 0.676,-0.113 1.36,-0.416 2.051,-0.908 0.692,-0.493 1.233,-1.166 1.625,-2.02 0.392,-0.854 0.588,-1.813 0.588,-2.876 0,-2.498 -0.977,-4.255 -2.929,-5.269 l 3.829,-8.739 -4.981,0 -2.786,7.904 -2.286,0 0,-7.904 L 0,-19.98 0,0 Z m 4.576,-3.235 0,-5.606 2.014,0 c 1.79,0 2.684,0.961 2.684,2.884 0,0.663 -0.132,1.207 -0.396,1.631 -0.265,0.425 -0.572,0.713 -0.923,0.864 -0.351,0.151 -0.867,0.227 -1.548,0.227 l -1.831,0 z" />
          </g>
          <g
             style="fill:#000000"
             transform="translate(289.8725,83.5806)"
             id="g68">
            <path
               id="path70"
               style="fill:#000000;fill-opacity:1;fill-rule:nonzero;stroke:none"
               d="m 0,0 c 0,-6.869 -2.517,-10.304 -7.55,-10.304 -2.502,0 -4.389,0.875 -5.66,2.627 -1.271,1.751 -1.906,4.311 -1.906,7.677 0,6.86 2.517,10.29 7.55,10.29 2.461,0 4.337,-0.859 5.629,-2.576 C -0.646,5.996 0,3.425 0,0 m -4.82,0 c 0,2.693 -0.219,4.486 -0.656,5.379 -0.437,0.893 -1.134,1.34 -2.09,1.34 -0.945,0 -1.637,-0.449 -2.074,-1.347 -0.438,-0.898 -0.656,-2.689 -0.656,-5.372 0,-2.635 0.216,-4.415 0.648,-5.342 0.432,-0.928 1.126,-1.39 2.082,-1.39 0.946,0 1.64,0.443 2.082,1.332 0.443,0.887 0.664,2.687 0.664,5.4" />
          </g>
        </g>
      </g>
      <g
         style="fill:#000000"
         transform="translate(571.69769,221.98821)"
         id="g72">
        <path
           id="path74"
           style="fill:#000000;fill-opacity:1;fill-rule:nonzero;stroke:none"
           d="M 0,0 5.04,0 7.978,-7.283 11.121,0 l 4.468,0 -5.781,-11.534 0,-8.446 -4.576,0 0,8.446 L 0,0 Z" />
      </g>
      <g
         style="fill:#000000"
         id="g76"
         transform="translate(281.7335,128.42482)">
        <g
           style="fill:#000000"
           clip-path="url(#clipPath80-4)"
           id="g78">
          <g
             style="fill:#000000"
             transform="translate(313.4854,84.2397)"
             id="g84">
            <path
               id="path86"
               style="fill:#000000;fill-opacity:1;fill-rule:nonzero;stroke:none"
               d="m 0,0 7.23,0 0,-10.656 -1.937,0 -0.595,2.283 c -1.119,-1.727 -2.796,-2.59 -5.034,-2.59 -2.369,0 -4.248,0.895 -5.636,2.686 -1.388,1.79 -2.082,4.198 -2.082,7.223 0,3.288 0.684,5.892 2.051,7.809 1.368,1.917 3.389,2.876 6.064,2.876 4.261,0 6.65,-2.283 7.169,-6.85 L 3.112,2.137 C 2.827,4.752 1.841,6.06 0.152,6.06 -0.875,6.06 -1.696,5.576 -2.311,4.61 -2.926,3.644 -3.234,1.815 -3.234,-0.878 c 0,-2.391 0.3,-4.074 0.9,-5.051 0.6,-0.975 1.48,-1.463 2.639,-1.463 1.861,0 2.797,1.322 2.807,3.967 L 0,-3.425 0,0 Z" />
          </g>
        </g>
      </g>
      <g
         style="fill:#000000"
         transform="translate(610.41218,221.98821)"
         id="g88">
        <path
           id="path90"
           style="fill:#000000;fill-opacity:1;fill-rule:nonzero;stroke:none"
           d="m 0,0 4.606,0 5.949,-19.98 -4.68,0 -1.038,4.128 -5.865,0 -1.022,-4.128 -4.204,0 L 0,0 Z m 3.976,-12.427 -2.104,8.186 -2.019,-8.186 4.123,0 z" />
      </g>
      <g
         style="fill:#000000"
         transform="translate(622.57158,221.98821)"
         id="g92">
        <path
           id="path94"
           style="fill:#000000;fill-opacity:1;fill-rule:nonzero;stroke:none"
           d="m 0,0 13.378,0 0,-3.118 -8.705,-13.29 8.979,0 0,-3.572 -14.293,0 0,3.059 L 8.12,-3.572 0,-3.572 0,0 Z" />
      </g>
      <g
         style="fill:#000000"
         transform="translate(638.23728,221.98821)"
         id="g96">
        <path
           id="path98"
           style="fill:#000000;fill-opacity:1;fill-rule:nonzero;stroke:none"
           d="M 0,0 6.712,0 9.656,-12.339 12.966,0 l 6.514,0 0,-19.98 -4.287,0 0,16.731 -4.256,-16.731 -3.325,0 -3.89,16.731 0,-16.731 L 0,-19.98 0,0 Z" />
      </g>
      <g
         style="fill:#000000"
         id="g100"
         transform="translate(281.7335,128.42482)">
        <g
           style="fill:#000000"
           clip-path="url(#clipPath104-1)"
           id="g102">
          <g
             style="fill:#000000"
             transform="translate(393.4442,83.5806)"
             id="g108">
            <path
               id="path110"
               style="fill:#000000;fill-opacity:1;fill-rule:nonzero;stroke:none"
               d="m 0,0 c 0,-6.869 -2.517,-10.304 -7.551,-10.304 -2.501,0 -4.388,0.875 -5.659,2.627 -1.271,1.751 -1.906,4.311 -1.906,7.677 0,6.86 2.517,10.29 7.55,10.29 2.461,0 4.337,-0.859 5.629,-2.576 C -0.646,5.996 0,3.425 0,0 m -4.82,0 c 0,2.693 -0.219,4.486 -0.656,5.379 -0.437,0.893 -1.134,1.34 -2.09,1.34 -0.945,0 -1.637,-0.449 -2.074,-1.347 -0.438,-0.898 -0.657,-2.689 -0.657,-5.372 0,-2.635 0.216,-4.415 0.649,-5.342 0.432,-0.928 1.126,-1.39 2.082,-1.39 0.946,0 1.64,0.443 2.082,1.332 0.442,0.887 0.664,2.687 0.664,5.4" />
          </g>
        </g>
      </g>
      <g
         style="fill:#000000"
         transform="translate(677.42318,221.98821)"
         id="g112">
        <path
           id="path114"
           style="fill:#000000;fill-opacity:1;fill-rule:nonzero;stroke:none"
           d="m 0,0 5.08,0 5.354,-12.412 0,12.412 3.539,0 0,-19.98 -4.088,0 -6.346,14.462 0,-14.462 L 0,-19.98 0,0 Z" />
      </g>
      <g
         style="fill:#000000"
         transform="translate(692.81468,221.98821)"
         id="g116">
        <path
           id="path118"
           style="fill:#000000;fill-opacity:1;fill-rule:nonzero;stroke:none"
           d="m 0,0 12.981,0 0,-3.747 -4.256,0 0,-16.233 -4.576,0 0,16.233 L 0,-3.747 0,0 Z" />
      </g>
      <g
         style="fill:#000000"
         transform="translate(710.64618,221.98821)"
         id="g120">
        <path
           id="path122"
           style="fill:#000000;fill-opacity:1;fill-rule:nonzero;stroke:none"
           d="m 0,0 4.607,0 5.949,-19.98 -4.68,0 -1.039,4.128 -5.865,0 -1.021,-4.128 -4.205,0 L 0,0 Z m 3.976,-12.427 -2.104,8.186 -2.019,-8.186 4.123,0 z" />
      </g>
      <g
         style="fill:#000000"
         transform="translate(722.99919,221.98821)"
         id="g124">
        <path
           id="path126"
           style="fill:#000000;fill-opacity:1;fill-rule:nonzero;stroke:none"
           d="m 0,0 13.378,0 0,-3.118 -8.705,-13.29 8.979,0 0,-3.572 -14.293,0 0,3.059 L 8.12,-3.572 0,-3.572 0,0 Z" />
      </g>
      <g
         style="fill:#000000"
         transform="translate(738.66439,221.98821)"
         id="g128">
        <path
           id="path130"
           style="fill:#000000;fill-opacity:1;fill-rule:nonzero;stroke:none"
           d="m 0,0 4.576,0 0,-8.065 5.003,0 0,8.065 4.577,0 0,-19.98 -4.577,0 0,8.168 -5.003,0 0,-8.168 L 0,-19.98 0,0 Z" />
      </g>
    </g>
  </g>
</svg>
